# xmcd
#
# Track frame offsets: 
#        150
#        12957
#        24927
#        38252
#        53180
#        66039
#        77662
#        91639
#        102221
#        115808
#        128027
#        140172
#        152857
#        165704
#        179347
#        195142
#        211306
#        227315
#        240933
#        256779
#        271975
#        286748
#
# Disc length: 4028 seconds
#
# Revision: 1
# Processed by: cddbd v1.5.2PL0 Copyright (c) Steve Scherf et al.
# Submitted via: ExactAudioCopyFreeDBPlugin 1.0
#
DISCID=090fba16
DTITLE=B.B. King - Essential Original Albums [Disc 2]
DYEAR=2016
DGENRE=Blues
TTITLE0=Why Do Things Happen to Me
TTITLE1=Ruby Lee
TTITLE2=When My Heart Beats Like a Hammer
TTITLE3=Past Day
TTITLE4=Boogie Woogie Woman
TTITLE5=Early in the Morning
TTITLE6=I Want to Get Married
TTITLE7=That Ain't the Way to Do It
TTITLE8=Troubles, Troubles, Troubles
TTITLE9=Don't You Want a Man Like Me
TTITLE10=You Know I Go for You
TTITLE11=What Can I Do
TTITLE12=You're Gonna Miss Me
TTITLE13=Got'em Bad
TTITLE14=Troubles Don't Last
TTITLE15=You Letter
TTITLE16=I Can't Explain
TTITLE17=The Wrong Road
TTITLE18=I Need You Baby
TTITLE19=So Many Days
TTITLE20=Downhearted
TTITLE21=Strange Things
EXTD=
EXTT0=
EXTT1=
EXTT2=
EXTT3=
EXTT4=
EXTT5=
EXTT6=
EXTT7=
EXTT8=
EXTT9=
EXTT10=
EXTT11=
EXTT12=
EXTT13=
EXTT14=
EXTT15=
EXTT16=
EXTT17=
EXTT18=
EXTT19=
EXTT20=
EXTT21=
PLAYORDER=
